<?xml version="1.0" encoding="UTF-8" standalone="no"?>
<svg
   xmlns:dc="http://purl.org/dc/elements/1.1/"
   xmlns:cc="http://creativecommons.org/ns#"
   xmlns:rdf="http://www.w3.org/1999/02/22-rdf-syntax-ns#"
   xmlns:svg="http://www.w3.org/2000/svg"
   xmlns="http://www.w3.org/2000/svg"
   xmlns:sodipodi="http://sodipodi.sourceforge.net/DTD/sodipodi-0.dtd"
   xmlns:inkscape="http://www.inkscape.org/namespaces/inkscape"
   id="Layer_1"
   data-name="Layer 1"
   viewBox="0 0 847.95454 99.801549"
   version="1.1"
   sodipodi:docname="game_over_text.svg"
   width="847.95453"
   height="99.801552"
   inkscape:version="1.0 (4035a4fb49, 2020-05-01)">
  <metadata
     id="metadata25">
    <rdf:RDF>
      <cc:Work
         rdf:about="">
        <dc:format>image/svg+xml</dc:format>
        <dc:type
           rdf:resource="http://purl.org/dc/dcmitype/StillImage" />
        <dc:title />
      </cc:Work>
    </rdf:RDF>
  </metadata>
  <sodipodi:namedview
     inkscape:document-rotation="0"
     pagecolor="#ffffff"
     bordercolor="#666666"
     borderopacity="1"
     objecttolerance="10"
     gridtolerance="10"
     guidetolerance="10"
     inkscape:pageopacity="0"
     inkscape:pageshadow="2"
     inkscape:window-width="3022"
     inkscape:window-height="1602"
     id="namedview23"
     showgrid="false"
     fit-margin-top="0"
     fit-margin-left="0"
     fit-margin-right="0"
     fit-margin-bottom="0"
     inkscape:zoom="1.7110424"
     inkscape:cx="321.6473"
     inkscape:cy="51.900775"
     inkscape:window-x="0"
     inkscape:window-y="0"
     inkscape:window-maximized="0"
     inkscape:current-layer="Layer_1" />
  <defs
     id="defs4">
    <style
       id="style2">.cls-1{fill:#231f20;}</style>
  </defs>
  <path
     id="path6"
     d="m 689.53397,4.0007739 c -6.12,13.5700001 -13.06914,31.2700001 -16.86914,46.0000001 -5.8,-10.92 -8.94024,-28.459219 -12.74024,-41.1992189 -7.45,0.33 -16.22008,0.8183594 -23.83008,1.3183599 2.65,19 26.14094,74.46164 39.71094,89.68164 h 0.33008 c 9.27,-28.46 22.66828,-64.700156 35.23828,-91.6601561 -6.95,-1.16 -14.88984,-2.820625 -21.83984,-4.140625 z M 216.20389,4.6609302 c -5.79,6.7799998 -14.88984,20.3499998 -22.33984,34.2499998 -3.31,-9.76 -9.10016,-20.519297 -11.91016,-30.2792967 h -0.5 C 170.10188,20.975636 154.24863,53.368528 145.75272,77.211712 135.16555,54.380188 126.49739,30.040121 118.22537,5.830852 h -0.33008 c -13.55999,17.2 -39.201558,73.080391 -41.851558,92.650391 7.610001,-0.83 16.220079,-1.490313 23.830079,-2.320313 0.489999,-1.49 1.000239,-3.140781 1.490239,-4.800781 l 24.15039,-5.449219 c 1,2.32 2.00039,4.629297 3.15039,6.779297 4.50556,-1.486835 9.09723,-3.169204 13.60937,-4.763672 -1.04705,3.661519 -1.80258,6.912241 -2.17969,9.554688 7.61,-0.49 16.38,-0.820157 24,-1.160157 4.47,-13.23 7.61039,-28.120937 13.90039,-39.710937 3.64,16.55 10.09063,29.950859 15.39063,40.380859 5.29,-17.05 7.94,-25.649687 17,-44.179687 3.14,14.23 8.92859,28.999453 14.55859,41.689453 6.64438,-1.700811 13.29561,-4.576943 19.81055,-6.53125 0.37904,3.184201 0.84106,6.303122 1.41992,9.332031 16.88,-5 37.55946,-9.101719 54.43946,-10.261719 l -1,-21 c -10.59001,1 -22.82977,1.65 -32.75977,4 -0.33,-2.319999 -0.49031,-4.639062 -0.82031,-6.789062 a 189.78,189.78 0 0 1 30.9414,-5.339844 c -0.33,-6.12 -1.16023,-14.229609 -1.49023,-20.349609 a 214.59,214.59 0 0 0 -30.12109,3.798828 74.33,74.33 0 0 1 1.33007,-10.089844 c 9.1,-2.48 19.00094,-3.000468 28.46094,-3.480469 L 294.48514,7.6101489 c -14.06,-0.3 -33.58063,1.5207813 -48.64063,5.3007811 -1.32,15.56 -2.48046,32.100313 -2.48046,47.820313 0,7.728123 0.24543,15.269839 0.89648,22.498047 C 233.78274,58.576364 224.32387,30.439815 216.86405,4.6609302 Z m 605.08984,0.4902343 c -10.59,0 -24.31922,2.6395313 -41.19922,8.2695315 h -0.33007 v 0.179687 c -1.66,19.52 -2.48047,39.710469 -2.48047,59.730469 0,6.94 0.16008,13.729688 0.33008,20.679688 7.44,-0.33 14.38984,-1.820391 21.83984,-2.150391 -0.5,-6 -0.66008,-11.749062 -0.83008,-17.539063 11.09,7.11 28.00063,14.72 37.89063,18 3.15,-6.12 6.99968,-13.899999 9.92968,-20 a 117.23,117.23 0 0 1 -23.66015,-8.769531 c 17.21,-10.59 25.64039,-24.810781 25.15039,-38.550781 -0.33,-12.74 -9.27063,-19.8496095 -26.64063,-19.8496095 z m -223.93945,0.00977 c -1.49,0 -3.13883,0.1600782 -4.79883,0.3300782 -22.83,3 -41.20117,25.1488273 -41.20117,49.7988273 0,22.83 15.89039,39.550782 36.40039,39.550782 1.49,0 3.15078,-0.169844 4.80078,-0.339844 22.67,-3 41.19922,-25.150781 41.19922,-49.800781 0,-22.83 -15.88039,-39.5390625 -36.40039,-39.5390625 z m -545.468751,1.49023 c -26.81,0 -46.8303119,30.7691405 -47.8203119,52.1191405 -1,19.52 13.0703119,36.230469 36.0703119,36.230469 a 60.2,60.2 0 0 0 19.689453,-3.640625 c 5.13,-1.82 12.570626,-4.799141 15.390626,-6.119141 A 396.27,396.27 0 0 1 72.764436,44.699993 c 0,-2.48 0.169922,-5.129453 0.169922,-7.439453 -9.93,1.32 -29.620001,5.949687 -39,8.429687 0.5,6 0.830078,15.06 1.330078,21 3.64,-1 13.401093,-3.148594 16.871093,-3.808594 0.17,3.31 0.498204,5.789532 0.658203,9.269532 a 25.1,25.1 0 0 1 -11.029296,2.660156 c -8.6,0 -15.549141,-4.789688 -17.369141,-9.429688 A 13.85,13.85 0 0 1 23.074982,59.26054 c 0,-12.41 12.409454,-31.09961 30.439454,-31.09961 a 29,29 0 0 1 12.25,2.810547 l 2,-20.681641 A 38,38 0 0 0 51.885529,6.6511645 Z m 709.429691,0.96875 c -13.79301,-0.074597 -31.83243,1.7472657 -45.95117,5.2910155 -1.32,15.56 -2.47852,32.100313 -2.47852,47.820313 0,12.91 0.65859,25.320312 2.80859,36.570312 16.88,-5 37.56141,-9.101719 54.44141,-10.261719 l -1,-21 c -10.58,1 -22.83172,1.65 -32.76172,4 -0.33,-2.319999 -0.48836,-4.639062 -0.81836,-6.789062 a 189.78,189.78 0 0 1 30.93945,-5.289062 c -0.33,-6.120001 -1.16023,-14.231563 -1.49023,-20.351563 a 214.77,214.77 0 0 0 -30.11914,3.800781 74.33,74.33 0 0 1 1.33008,-10.089844 c 9.1,-2.48 18.99898,-3.000468 28.45898,-3.480468 L 764.01444,7.6609301 c -0.87938,-0.021875 -1.77969,-0.036042 -2.69922,-0.041016 z m 57.66015,19.0507815 c 5.46,0 9.26914,1.649219 6.61914,6.449219 -3.15789,5.956022 -16.54223,17.025338 -27.1289,19.355468 0.32991,-7.608047 0.65856,-15.215974 1.14844,-22.664062 4.79999,-1.16 13.24132,-3.140625 19.36132,-3.140625 z m -221.63281,0.488281 c 9.4834,-0.07797 14.42188,8.351953 14.42188,17.501953 0,12.25 -9.28,26.35 -22,28 -10.76,1.33 -16.54883,-7.611094 -16.54883,-17.371094 0,-12.24 9.26992,-26.31 22.16992,-28 0.6725,-0.08312 1.3248,-0.125661 1.95703,-0.130859 z M 114.26444,53.330852 c 1.33,5.46 3.00086,10.75086 4.63085,15.88086 l -12.07031,3.11914 a 137.79,137.79 0 0 1 7.43946,-19 z" />
  <path
     d="m 685.51875,0 c -6.12,13.57 -13.06914,31.27 -16.86914,46 -5.8,-10.92 -8.94024,-28.459219 -12.74024,-41.199219 -7.45,0.33 -16.22008,0.818359 -23.83008,1.318359 2.65,19.000001 26.14094,74.461641 39.71094,89.681637 h 0.33008 c 9.27,-28.459996 22.66828,-64.700152 35.23828,-91.660152 C 700.40859,2.980625 692.46875,1.32 685.51875,0 Z M 212.18867,0.660156 c -5.79,6.78 -14.88984,20.35 -22.33984,34.25 -3.31,-9.76 -9.10016,-20.519297 -11.91016,-30.279297 h -0.5 C 166.08666,16.974862 150.23341,49.367754 141.7375,73.210938 131.15033,50.379414 122.48217,26.039347 114.21015,1.830078 h -0.33008 c -13.55999,17.2 -39.201567,73.080391 -41.851567,92.650389 7.61001,-0.83 16.22008,-1.49031 23.83008,-2.32031 0.49,-1.49 1.00024,-3.14078 1.49024,-4.80078 l 24.150397,-5.44922 c 1,2.32 2.00039,4.6293 3.15039,6.7793 4.50556,-1.48684 9.09723,-3.16921 13.60937,-4.76368 -1.04705,3.66152 -1.80258,6.91224 -2.17969,9.55469 7.61,-0.49 16.38,-0.82016 24,-1.16016 4.47,-13.229995 7.61039,-28.120932 13.90039,-39.710932 3.64,16.55 10.09063,29.950862 15.39063,40.380862 5.29,-17.050003 7.94,-25.64969 17,-44.17969 3.14,14.23 8.92859,28.999453 14.55859,41.68945 6.64438,-1.70081 13.29561,-4.57694 19.81055,-6.53125 0.37904,3.1842 0.84106,6.30312 1.41992,9.33203 16.88,-5 37.55946,-9.10172 54.43946,-10.26172 l -1,-20.999995 c -10.59001,1 -22.82977,1.65 -32.75977,4 C 262.50906,63.719063 262.34875,61.4 262.01875,59.25 a 189.78,189.78 0 0 1 30.9414,-5.339844 c -0.33,-6.12 -1.16023,-14.229609 -1.49023,-20.349609 a 214.59,214.59 0 0 0 -30.12109,3.798828 74.33,74.33 0 0 1 1.33007,-10.089844 c 9.1,-2.48 19.00094,-3.000468 28.46094,-3.480469 L 290.46992,3.609375 c -14.06,-0.3 -33.58063,1.520781 -48.64063,5.300781 -1.32,15.56 -2.48046,32.100313 -2.48046,47.820313 0,7.728123 0.24543,15.269839 0.89648,22.498047 C 229.76752,54.57559 220.30865,26.439041 212.84883,0.660156 Z M 817.27851,1.15039 c -10.59,0 -24.31922,2.639531 -41.19922,8.269531 h -0.33007 v 0.179688 c -1.66,19.52 -2.48047,39.710469 -2.48047,59.730469 0,6.94 0.16008,13.729689 0.33008,20.679689 7.44,-0.33 14.38984,-1.82039 21.83984,-2.15039 -0.5,-6 -0.66008,-11.749064 -0.83008,-17.539065 11.09,7.11 28.00063,14.719995 37.89063,17.999995 3.15,-6.12 6.99968,-13.899994 9.92968,-19.999995 A 117.23,117.23 0 0 1 818.76875,59.550781 C 835.97875,48.960781 844.40914,34.74 843.91914,21 843.58914,8.26 834.64851,1.15039 817.27851,1.15039 Z m -223.93945,0.0098 c -1.49,0 -3.13883,0.160078 -4.79883,0.330078 -22.83,3 -41.20117,25.148828 -41.20117,49.798828 0,22.83 15.89039,39.550781 36.40039,39.550781 1.49,0 3.15078,-0.16984 4.80078,-0.33984 22.67,-3 41.19922,-25.150784 41.19922,-49.800784 0,-22.83 -15.88039,-39.539063 -36.40039,-39.539063 z M 47.870303,2.65042 c -26.81,0 -46.8303097,30.769141 -47.82030971,52.119141 -1,19.52 13.07030971,36.230466 36.07030971,36.230466 a 60.2,60.2 0 0 0 19.68945,-3.64062 c 5.13,-1.82 12.57063,-4.79914 15.39063,-6.119143 a 396.27,396.27 0 0 1 -2.45117,-40.541015 c 0,-2.48 0.16992,-5.129453 0.16992,-7.439453 -9.93,1.32 -29.62,5.949687 -39,8.429687 0.5,6 0.83008,15.06 1.33008,21 3.64,-1 13.40109,-3.148594 16.87109,-3.808594 0.17,3.31 0.49821,5.789532 0.6582,9.269532 a 25.1,25.1 0 0 1 -11.02929,2.660156 c -8.6,0 -15.54914,-4.789688 -17.36914,-9.429688 a 13.85,13.85 0 0 1 -1.32032,-6.121093 c 0,-12.41 12.40946,-31.09961 30.43946,-31.09961 a 29,29 0 0 1 12.25,2.810547 l 2,-20.681641 A 38,38 0 0 0 47.870303,2.65042 Z M 757.3,3.61917 c -13.79301,-0.0746 -31.83243,1.747266 -45.95117,5.291016 -1.32,15.56 -2.47852,32.100313 -2.47852,47.820313 0,12.91 0.65859,25.320308 2.80859,36.570308 16.88,-5 37.56141,-9.10172 54.44141,-10.26172 l -1,-20.999995 c -10.58,1 -22.83172,1.65 -32.76172,4 -0.33,-2.319999 -0.48836,-4.639062 -0.81836,-6.789062 a 189.78,189.78 0 0 1 30.93945,-5.289062 c -0.33,-6.120001 -1.16023,-14.231563 -1.49023,-20.351563 a 214.77,214.77 0 0 0 -30.11914,3.800781 74.33,74.33 0 0 1 1.33008,-10.089844 c 9.1,-2.48 18.99898,-3.000468 28.45898,-3.480468 L 759.99922,3.660186 C 759.11984,3.638306 758.21953,3.624146 757.3,3.619166 Z m 57.66015,19.050782 c 5.46,0 9.26914,1.649219 6.61914,6.449219 -3.15789,5.956022 -16.54223,17.025338 -27.1289,19.355468 0.32991,-7.608047 0.65856,-15.215974 1.14844,-22.664062 4.79999,-1.16 13.24132,-3.140625 19.36132,-3.140625 z m -221.63281,0.488281 c 9.4834,-0.07797 14.42188,8.351953 14.42188,17.501953 0,12.25 -9.28,26.35 -22,28 -10.76,1.33 -16.54883,-7.611094 -16.54883,-17.371094 0,-12.24 9.26992,-26.31 22.16992,-28 0.6725,-0.08312 1.3248,-0.125661 1.95703,-0.130859 z M 110.24922,49.330078 c 1.33,5.46 3.00086,10.75086 4.63085,15.88086 l -12.07031,3.11914 a 137.79,137.79 0 0 1 7.43946,-19 z"
     id="path6-6"
     style="fill:#ffffff" />
</svg>
