<?xml version="1.0" encoding="UTF-8" standalone="no"?>
<svg
   xmlns:dc="http://purl.org/dc/elements/1.1/"
   xmlns:cc="http://creativecommons.org/ns#"
   xmlns:rdf="http://www.w3.org/1999/02/22-rdf-syntax-ns#"
   xmlns:svg="http://www.w3.org/2000/svg"
   xmlns="http://www.w3.org/2000/svg"
   xmlns:sodipodi="http://sodipodi.sourceforge.net/DTD/sodipodi-0.dtd"
   xmlns:inkscape="http://www.inkscape.org/namespaces/inkscape"
   id="Layer_1"
   data-name="Layer 1"
   viewBox="0 0 56.32 56.32"
   version="1.1"
   sodipodi:docname="Sanity_bar_skull.svg"
   inkscape:version="1.0 (4035a4fb49, 2020-05-01)">
  <metadata
     id="metadata11">
    <rdf:RDF>
      <cc:Work
         rdf:about="">
        <dc:format>image/svg+xml</dc:format>
        <dc:type
           rdf:resource="http://purl.org/dc/dcmitype/StillImage" />
        <dc:title />
      </cc:Work>
    </rdf:RDF>
  </metadata>
  <sodipodi:namedview
     inkscape:document-rotation="0"
     pagecolor="#ffffff"
     bordercolor="#666666"
     borderopacity="1"
     objecttolerance="10"
     gridtolerance="10"
     guidetolerance="10"
     inkscape:pageopacity="0"
     inkscape:pageshadow="2"
     inkscape:window-width="3828"
     inkscape:window-height="2052"
     id="namedview9"
     showgrid="false"
     inkscape:zoom="17.897727"
     inkscape:cx="28.16"
     inkscape:cy="28.16"
     inkscape:window-x="0"
     inkscape:window-y="0"
     inkscape:window-maximized="0"
     inkscape:current-layer="Layer_1" />
  <defs
     id="defs4">
    <style
       id="style2">.cls-1{fill:#56bc7a;}</style>
  </defs>
  <path
     id="path6"
     d="M 28.130859 0 C 12.570859 0 -0.0390625 11.000625 -0.0390625 24.640625 C -0.0390625 32.350625 4.019375 39.22 10.359375 43.75 A 3.43 3.43 0 0 1 11.880859 47.060547 L 10.880859 54.339844 A 1.75 1.75 0 0 0 12.609375 56.339844 L 21.130859 56.339844 L 21.130859 50.160156 A 0.88 0.88 0 0 1 22.009766 49.279297 L 23.769531 49.279297 A 0.89 0.89 0 0 1 24.650391 50.160156 L 24.650391 56.320312 L 31.650391 56.320312 L 31.650391 50.160156 A 0.88 0.88 0 0 1 32.529297 49.279297 L 34.289062 49.279297 A 0.89 0.89 0 0 1 35.169922 50.160156 L 35.169922 56.320312 L 43.710938 56.320312 A 1.74 1.74 0 0 0 45.439453 54.320312 L 44.439453 47.039062 A 3.44 3.44 0 0 1 45.919922 43.75 C 52.259922 39.22 56.320312 32.350625 56.320312 24.640625 C 56.330313 11.060625 43.720859 0 28.130859 0 z M 17.603516 21.199219 A 7 7 0 0 1 24.570312 28.199219 A 7.05 7.05 0 0 1 17.609375 35.199219 L 17.570312 35.199219 A 7 7 0 1 1 17.603516 21.199219 z M 38.724609 21.199219 A 7 7 0 0 1 45.689453 28.199219 A 7 7 0 0 1 38.730469 35.199219 L 38.689453 35.199219 A 7 7 0 1 1 38.724609 21.199219 z "
     style="fill:#ffffff" />
</svg>
