<?xml version="1.0" encoding="UTF-8" standalone="no"?>
<svg
   xmlns:dc="http://purl.org/dc/elements/1.1/"
   xmlns:cc="http://creativecommons.org/ns#"
   xmlns:rdf="http://www.w3.org/1999/02/22-rdf-syntax-ns#"
   xmlns:svg="http://www.w3.org/2000/svg"
   xmlns="http://www.w3.org/2000/svg"
   xmlns:sodipodi="http://sodipodi.sourceforge.net/DTD/sodipodi-0.dtd"
   xmlns:inkscape="http://www.inkscape.org/namespaces/inkscape"
   id="Layer_1"
   data-name="Layer 1"
   viewBox="0 0 89.05 89.05"
   version="1.1"
   sodipodi:docname="Tutorial_E.svg"
   inkscape:version="1.0 (4035a4fb49, 2020-05-01)">
  <metadata
     id="metadata13">
    <rdf:RDF>
      <cc:Work
         rdf:about="">
        <dc:format>image/svg+xml</dc:format>
        <dc:type
           rdf:resource="http://purl.org/dc/dcmitype/StillImage" />
        <dc:title />
      </cc:Work>
    </rdf:RDF>
  </metadata>
  <sodipodi:namedview
     inkscape:document-rotation="0"
     pagecolor="#ffffff"
     bordercolor="#666666"
     borderopacity="1"
     objecttolerance="10"
     gridtolerance="10"
     guidetolerance="10"
     inkscape:pageopacity="0"
     inkscape:pageshadow="2"
     inkscape:window-width="2933"
     inkscape:window-height="1478"
     id="namedview11"
     showgrid="false"
     inkscape:zoom="11.319483"
     inkscape:cx="44.525002"
     inkscape:cy="44.525002"
     inkscape:window-x="0"
     inkscape:window-y="0"
     inkscape:window-maximized="0"
     inkscape:current-layer="Layer_1" />
  <defs
     id="defs4">
    <style
       id="style2">.cls-1{fill:#231f20;}</style>
  </defs>
  <path
     id="path6"
     d="M 9.0410156 0 A 9.15 9.15 0 0 0 0 9.1308594 L 0 79.929688 A 9.15 9.15 0 0 0 9.1308594 89.060547 L 79.929688 89.060547 A 9.15 9.15 0 0 0 89.060547 79.929688 L 89.060547 9.1308594 A 9.15 9.15 0 0 0 79.929688 0 L 9.1308594 0 A 9.15 9.15 0 0 0 9.0410156 0 z M 9.1308594 3 L 79.929688 3 A 6.14 6.14 0 0 1 86.060547 9.1308594 L 86.060547 79.929688 A 6.14 6.14 0 0 1 79.929688 86.060547 L 9.1308594 86.060547 A 6.14 6.14 0 0 1 3 79.929688 L 3 9.1308594 A 6.14 6.14 0 0 1 9.1308594 3 z M 34.230469 27.519531 L 34.230469 61.919922 L 53.529297 61.869141 L 53.529297 58.320312 L 38.230469 58.320312 L 38.230469 46.320312 L 51.529297 46.320312 L 51.529297 42.769531 L 38.230469 42.769531 L 38.230469 31.070312 L 53.529297 31.070312 L 53.529297 27.519531 L 34.230469 27.519531 z "
     style="fill:#ffffff" />
</svg>
