<?xml version="1.0" encoding="UTF-8" standalone="no"?>
<svg
   xmlns:dc="http://purl.org/dc/elements/1.1/"
   xmlns:cc="http://creativecommons.org/ns#"
   xmlns:rdf="http://www.w3.org/1999/02/22-rdf-syntax-ns#"
   xmlns:svg="http://www.w3.org/2000/svg"
   xmlns="http://www.w3.org/2000/svg"
   xmlns:sodipodi="http://sodipodi.sourceforge.net/DTD/sodipodi-0.dtd"
   xmlns:inkscape="http://www.inkscape.org/namespaces/inkscape"
   id="Layer_1"
   data-name="Layer 1"
   viewBox="0 0 89.05 89.05"
   version="1.1"
   sodipodi:docname="Tutorial_D.svg"
   inkscape:version="1.0 (4035a4fb49, 2020-05-01)">
  <metadata
     id="metadata13">
    <rdf:RDF>
      <cc:Work
         rdf:about="">
        <dc:format>image/svg+xml</dc:format>
        <dc:type
           rdf:resource="http://purl.org/dc/dcmitype/StillImage" />
        <dc:title />
      </cc:Work>
    </rdf:RDF>
  </metadata>
  <sodipodi:namedview
     inkscape:document-rotation="0"
     pagecolor="#ffffff"
     bordercolor="#666666"
     borderopacity="1"
     objecttolerance="10"
     gridtolerance="10"
     guidetolerance="10"
     inkscape:pageopacity="0"
     inkscape:pageshadow="2"
     inkscape:window-width="2328"
     inkscape:window-height="1227"
     id="namedview11"
     showgrid="false"
     inkscape:zoom="5.6597415"
     inkscape:cx="58.827838"
     inkscape:cy="35.954214"
     inkscape:window-x="578"
     inkscape:window-y="276"
     inkscape:window-maximized="0"
     inkscape:current-layer="Layer_1" />
  <defs
     id="defs4">
    <style
       id="style2">.cls-1{fill:#231f20;}</style>
  </defs>
  <path
     id="path6"
     d="M 9.0175781 0 A 9.13 9.13 0 0 0 0 9.1308594 L 0 79.919922 A 9.13 9.13 0 0 0 9.1191406 89.050781 L 79.919922 89.050781 A 9.14 9.14 0 0 0 89.050781 79.919922 L 89.050781 9.1308594 A 9.14 9.14 0 0 0 79.919922 0 L 9.1191406 0 A 9.13 9.13 0 0 0 9.0175781 0 z M 9.1191406 3 L 79.919922 3 A 6.14 6.14 0 0 1 86.050781 9.1308594 L 86.050781 79.919922 A 6.14 6.14 0 0 1 79.919922 86.050781 L 9.1191406 86.050781 A 6.13 6.13 0 0 1 3 79.919922 L 3 9.1308594 A 6.13 6.13 0 0 1 9.1191406 3 z M 33.400391 27.330078 L 33.400391 61.730469 L 43 61.730469 C 47.1 61.730469 49.999219 61.302552 51.699219 60.449219 A 6.21 6.21 0 0 0 54.949219 55.849609 A 92 92 0 0 0 54.949219 33.199219 A 6.21 6.21 0 0 0 51.699219 28.599609 C 49.999219 27.752943 47.1 27.330078 43 27.330078 L 33.400391 27.330078 z M 43.710938 30.869141 A 19.9 19.9 0 0 1 48.900391 31.570312 C 50.027057 32.023646 50.765807 33.122474 51.119141 34.869141 A 88.85 88.85 0 0 1 51.119141 54.25 C 50.769141 55.98 50.039922 57.069531 48.919922 57.519531 A 19.76 19.76 0 0 1 42.550781 58.199219 L 37.400391 58.199219 L 37.400391 30.900391 L 42.550781 30.900391 A 19.9 19.9 0 0 1 43.710938 30.869141 z "
     style="fill:#ffffff" />
</svg>
