<?xml version="1.0" encoding="UTF-8" standalone="no"?>
<svg
   xmlns:dc="http://purl.org/dc/elements/1.1/"
   xmlns:cc="http://creativecommons.org/ns#"
   xmlns:rdf="http://www.w3.org/1999/02/22-rdf-syntax-ns#"
   xmlns:svg="http://www.w3.org/2000/svg"
   xmlns="http://www.w3.org/2000/svg"
   xmlns:sodipodi="http://sodipodi.sourceforge.net/DTD/sodipodi-0.dtd"
   xmlns:inkscape="http://www.inkscape.org/namespaces/inkscape"
   id="Layer_1"
   data-name="Layer 1"
   viewBox="0 0 89.05 89.05"
   version="1.1"
   sodipodi:docname="Tutorial_A.svg"
   inkscape:version="1.0 (4035a4fb49, 2020-05-01)">
  <metadata
     id="metadata13">
    <rdf:RDF>
      <cc:Work
         rdf:about="">
        <dc:format>image/svg+xml</dc:format>
        <dc:type
           rdf:resource="http://purl.org/dc/dcmitype/StillImage" />
        <dc:title />
      </cc:Work>
    </rdf:RDF>
  </metadata>
  <sodipodi:namedview
     inkscape:document-rotation="0"
     pagecolor="#ffffff"
     bordercolor="#666666"
     borderopacity="1"
     objecttolerance="10"
     gridtolerance="10"
     guidetolerance="10"
     inkscape:pageopacity="0"
     inkscape:pageshadow="2"
     inkscape:window-width="2869"
     inkscape:window-height="1570"
     id="namedview11"
     showgrid="false"
     inkscape:zoom="11.319483"
     inkscape:cx="44.525002"
     inkscape:cy="44.525002"
     inkscape:window-x="0"
     inkscape:window-y="0"
     inkscape:window-maximized="0"
     inkscape:current-layer="Layer_1" />
  <defs
     id="defs4">
    <style
       id="style2">.cls-1{fill:#231f20;}</style>
  </defs>
  <path
     id="path6"
     d="M 9.0175781 0 A 9.13 9.13 0 0 0 0 9.1308594 L 0 79.919922 A 9.13 9.13 0 0 0 9.1191406 89.050781 L 79.919922 89.050781 A 9.14 9.14 0 0 0 89.050781 79.919922 L 89.050781 9.1308594 A 9.14 9.14 0 0 0 79.919922 0 L 9.1191406 0 A 9.13 9.13 0 0 0 9.0175781 0 z M 9.1191406 3 L 79.919922 3 A 6.14 6.14 0 0 1 86.050781 9.1308594 L 86.050781 79.919922 A 6.14 6.14 0 0 1 79.919922 86.050781 L 9.1191406 86.050781 A 6.13 6.13 0 0 1 3 79.919922 L 3 9.1308594 A 6.13 6.13 0 0 1 9.1191406 3 z M 42 27.330078 L 31 61.730469 L 35 61.730469 L 38 52.330078 L 51 52.330078 L 54 61.730469 L 58.25 61.730469 L 47.25 27.330078 L 42 27.330078 z M 44.349609 31.730469 L 44.599609 31.730469 L 49.949219 48.779297 L 38.949219 48.779297 L 44.349609 31.730469 z "
     style="fill:#ffffff" />
</svg>
