<?xml version="1.0" encoding="UTF-8" standalone="no"?>
<svg
   xmlns:dc="http://purl.org/dc/elements/1.1/"
   xmlns:cc="http://creativecommons.org/ns#"
   xmlns:rdf="http://www.w3.org/1999/02/22-rdf-syntax-ns#"
   xmlns:svg="http://www.w3.org/2000/svg"
   xmlns="http://www.w3.org/2000/svg"
   xmlns:sodipodi="http://sodipodi.sourceforge.net/DTD/sodipodi-0.dtd"
   xmlns:inkscape="http://www.inkscape.org/namespaces/inkscape"
   id="Layer_1"
   data-name="Layer 1"
   viewBox="0 0 286.04 89.05"
   version="1.1"
   sodipodi:docname="Tutorial_Space.svg"
   inkscape:version="1.0 (4035a4fb49, 2020-05-01)">
  <metadata
     id="metadata21">
    <rdf:RDF>
      <cc:Work
         rdf:about="">
        <dc:format>image/svg+xml</dc:format>
        <dc:type
           rdf:resource="http://purl.org/dc/dcmitype/StillImage" />
        <dc:title />
      </cc:Work>
    </rdf:RDF>
  </metadata>
  <sodipodi:namedview
     inkscape:document-rotation="0"
     pagecolor="#ffffff"
     bordercolor="#666666"
     borderopacity="1"
     objecttolerance="10"
     gridtolerance="10"
     guidetolerance="10"
     inkscape:pageopacity="0"
     inkscape:pageshadow="2"
     inkscape:window-width="3200"
     inkscape:window-height="1653"
     id="namedview19"
     showgrid="false"
     inkscape:zoom="5.0482448"
     inkscape:cx="143.02"
     inkscape:cy="44.525002"
     inkscape:window-x="0"
     inkscape:window-y="0"
     inkscape:window-maximized="0"
     inkscape:current-layer="Layer_1" />
  <defs
     id="defs4">
    <style
       id="style2">.cls-1{fill:#231f20;}</style>
  </defs>
  <path
     id="path6"
     d="M 9.0292969 0.05078125 A 9.14 9.14 0 0 0 0 9.1796875 L 0 79.919922 A 9.14 9.14 0 0 0 9.1308594 89.050781 L 276.91016 89.050781 A 9.13 9.13 0 0 0 286.03906 79.970703 L 286.03906 9.1796875 A 9.13 9.13 0 0 0 276.91016 0.05078125 L 9.1308594 0.05078125 A 9.14 9.14 0 0 0 9.0292969 0.05078125 z M 9.1308594 3.0507812 L 276.91016 3.0507812 A 6.14 6.14 0 0 1 283.03906 9.1796875 L 283.03906 79.970703 A 6.14 6.14 0 0 1 276.91016 86.099609 L 9.1308594 86.099609 A 6.14 6.14 0 0 1 3 79.970703 L 3 9.1796875 A 6.14 6.14 0 0 1 9.1308594 3.0507812 z M 89.126953 26.880859 A 19.06 19.06 0 0 0 83.699219 27.689453 A 6.3 6.3 0 0 0 80.169922 30.560547 A 12 12 0 0 0 78.970703 36.490234 A 21.18 21.18 0 0 0 79.369141 41.089844 A 5.25 5.25 0 0 0 81.050781 43.939453 A 7.38 7.38 0 0 0 84.869141 45.390625 L 91.869141 46.289062 A 10.78 10.78 0 0 1 95 47.039062 A 2.16 2.16 0 0 1 96.119141 48.539062 A 18.15 18.15 0 0 1 96.369141 52.240234 A 17 17 0 0 1 96.119141 55.560547 A 2.76 2.76 0 0 1 94.970703 57.390625 A 5.63 5.63 0 0 1 92.699219 58.289062 A 23 23 0 0 1 88.919922 58.539062 C 86.349922 58.539062 83.299531 58.350234 79.769531 57.990234 L 79.769531 61.390625 C 81.169531 61.620625 82.809219 61.790156 84.699219 61.910156 C 86.579219 62.030156 88.389922 62.090156 90.169922 62.160156 A 17.76 17.76 0 0 0 96 61.380859 A 5.93 5.93 0 0 0 99.320312 58.380859 A 14.4 14.4 0 0 0 100.4707 51.910156 A 16.68 16.68 0 0 0 99.820312 46.310547 A 4.55 4.55 0 0 0 97.699219 43.679688 A 13.18 13.18 0 0 0 93.570312 42.609375 L 86.669922 41.710938 A 7.14 7.14 0 0 1 84.220703 41.080078 A 2.14 2.14 0 0 1 83.220703 39.660156 A 14.43 14.43 0 0 1 82.970703 36.460938 A 12.24 12.24 0 0 1 83.25 33.460938 A 3 3 0 0 1 84.369141 31.740234 A 5.17 5.17 0 0 1 86.669922 30.740234 A 21.59 21.59 0 0 1 90.720703 30.439453 A 56 56 0 0 1 98.970703 30.990234 L 98.970703 27.689453 A 32.65 32.65 0 0 0 94.900391 27.109375 C 93.250391 26.959375 91.550313 26.890625 89.820312 26.890625 A 19.06 19.06 0 0 0 89.126953 26.880859 z M 174.26953 26.890625 C 170.69953 26.890625 168.09922 27.340234 166.44922 28.240234 A 7.11 7.11 0 0 0 163.11914 33.160156 A 76.2 76.2 0 0 0 163.11914 55.859375 A 7 7 0 0 0 166.41992 60.759766 C 168.04992 61.639766 170.66953 62.089844 174.26953 62.089844 C 175.43953 62.089844 176.65922 62.030156 177.94922 61.910156 A 27.14 27.14 0 0 0 181.2207 61.439453 L 181.2207 58.089844 A 33.84 33.84 0 0 1 175.2207 58.539062 A 15.46 15.46 0 0 1 169.11914 57.689453 C 167.94914 57.089453 167.19031 55.919844 166.82031 54.089844 A 84.06 84.06 0 0 1 166.82031 34.890625 C 167.19031 33.050625 167.94914 31.849062 169.11914 31.289062 C 170.28581 30.722396 172.3207 30.439453 175.2207 30.439453 A 38 38 0 0 1 181.07031 30.890625 L 181.07031 27.589844 A 22.69 22.69 0 0 0 177.94922 27.089844 A 34 34 0 0 0 174.26953 26.890625 z M 120.98047 27.265625 A 10.32 10.32 0 0 0 120.16992 27.289062 L 107.4707 27.289062 L 107.4707 61.689453 L 111.4707 61.689453 L 111.4707 48.990234 L 120.11914 48.990234 A 10.21 10.21 0 0 0 126 47.589844 A 6.43 6.43 0 0 0 128.57031 43.939453 A 23.14 23.14 0 0 0 129.16992 38.140625 A 23.72 23.72 0 0 0 128.57031 32.259766 A 6.22 6.22 0 0 0 126.01953 28.640625 A 10.32 10.32 0 0 0 120.98047 27.265625 z M 141.61914 27.289062 L 130.61914 61.689453 L 134.61914 61.689453 L 137.61914 52.289062 L 150.61914 52.289062 L 153.61914 61.689453 L 157.86914 61.689453 L 146.86914 27.289062 L 141.61914 27.289062 z M 187.82031 27.289062 L 187.82031 61.689453 L 207.11914 61.730469 L 207.11914 58.179688 L 191.82031 58.179688 L 191.82031 46.089844 L 205.11914 46.089844 L 205.11914 42.539062 L 191.82031 42.539062 L 191.82031 30.839844 L 207.11914 30.839844 L 207.11914 27.289062 L 187.82031 27.289062 z M 119.57227 30.826172 A 8.41 8.41 0 0 1 123.11914 31.589844 A 3.32 3.32 0 0 1 124.76953 33.789062 A 20.12 20.12 0 0 1 125.11914 38.140625 A 19.15 19.15 0 0 1 124.75 42.490234 A 3.45 3.45 0 0 1 123.07031 44.740234 A 8.41 8.41 0 0 1 119.07031 45.490234 L 111.4707 45.490234 L 111.4707 30.839844 L 119.11914 30.839844 A 8.41 8.41 0 0 1 119.57227 30.826172 z M 143.9707 31.689453 L 144.2207 31.689453 L 149.57031 48.689453 L 138.57031 48.689453 L 143.9707 31.689453 z "
     style="fill:#ffffff" />
</svg>
