<?xml version="1.0" encoding="UTF-8" standalone="no"?>
<svg
   xmlns:dc="http://purl.org/dc/elements/1.1/"
   xmlns:cc="http://creativecommons.org/ns#"
   xmlns:rdf="http://www.w3.org/1999/02/22-rdf-syntax-ns#"
   xmlns:svg="http://www.w3.org/2000/svg"
   xmlns="http://www.w3.org/2000/svg"
   xmlns:sodipodi="http://sodipodi.sourceforge.net/DTD/sodipodi-0.dtd"
   xmlns:inkscape="http://www.inkscape.org/namespaces/inkscape"
   id="Layer_1"
   data-name="Layer 1"
   viewBox="0 0 163.68534 81.820002"
   version="1.1"
   sodipodi:docname="Tutorial_gamepad.svg"
   width="163.68535"
   height="81.82"
   inkscape:version="1.0 (4035a4fb49, 2020-05-01)">
  <metadata
     id="metadata11">
    <rdf:RDF>
      <cc:Work
         rdf:about="">
        <dc:format>image/svg+xml</dc:format>
        <dc:type
           rdf:resource="http://purl.org/dc/dcmitype/StillImage" />
        <dc:title />
      </cc:Work>
    </rdf:RDF>
  </metadata>
  <sodipodi:namedview
     inkscape:document-rotation="0"
     pagecolor="#ffffff"
     bordercolor="#666666"
     borderopacity="1"
     objecttolerance="10"
     gridtolerance="10"
     guidetolerance="10"
     inkscape:pageopacity="0"
     inkscape:pageshadow="2"
     inkscape:window-width="3282"
     inkscape:window-height="1883"
     id="namedview9"
     showgrid="false"
     fit-margin-top="0"
     fit-margin-left="0"
     fit-margin-right="0"
     fit-margin-bottom="0"
     inkscape:zoom="8.8247874"
     inkscape:cx="82.467071"
     inkscape:cy="40.889564"
     inkscape:window-x="0"
     inkscape:window-y="0"
     inkscape:window-maximized="0"
     inkscape:current-layer="Layer_1" />
  <defs
     id="defs4">
    <style
       id="style2">.cls-1{fill:#231f20;}</style>
  </defs>
  <path
     id="path6"
     d="M 41.034881,1.9060395e-4 A 40.91,40.91 0 1 0 41.571991,81.814644 c 9.48,0 22.570937,-5.499531 29.210937,-12.269531 h 23.398438 c 6.640004,6.77 19.720934,12.269531 29.210934,12.269531 a 40.91,40.91 0 0 0 0.01,-81.81054715 H 41.571991 a 40.91,40.91 0 0 0 -0.53711,-0.003906246 z M 38.462616,18.365425 h 6.138672 a 3.08,3.08 0 0 1 3.070312,3.06836 v 13.300781 h 13.291016 a 3.06,3.06 0 0 1 3.070312,3.060547 l 0.03906,6.208984 A 3.07,3.07 0 0 1 61.001675,47.07441 H 47.70285 v 13.291015 a 3.07,3.07 0 0 1 -3.070312,3.06836 h -6.140625 a 3.06,3.06 0 0 1 -3.060547,-3.06836 V 47.004097 H 22.132538 a 3.08,3.08 0 0 1 -3.070313,-3.070312 v -6.138672 a 3.07,3.07 0 0 1 3.070313,-3.060547 H 35.402069 V 21.433785 a 3.07,3.07 0 0 1 3.060547,-3.06836 z m 97.056644,0.07031 a 10.23,10.23 0 0 1 10.36328,10.228516 10.23,10.23 0 0 1 -10.24024,10.179687 l 0.01,0.05078 a 10.23,10.23 0 0 1 -0.13281,-20.458984 z m -16.35938,24.539062 a 10.23,10.23 0 0 1 10.36133,10.230469 10.23,10.23 0 0 1 -10.23828,10.179688 l 0.01,0.04883 a 10.23,10.23 0 0 1 -0.13281,-20.458985 z"
     style="fill:#ffffff" />
</svg>
